
<svg version="1.0" 
 width="1280.000000pt" height="700.000000pt" viewBox="0 0 1280.000000 700.000000"
 preserveAspectRatio="xMidYMid meet">
<g transform="translate(0.000000,700.000000) scale(0.100000,-0.100000)"
fill="#000000" stroke="none">
<path d="M1731 6980 c-106 -29 -194 -82 -283 -170 -127 -126 -184 -275 -159
-419 12 -73 52 -180 84 -223 57 -78 191 -92 307 -33 53 27 130 107 130 134 0
28 -31 60 -67 70 -29 8 -32 7 -38 -17 -9 -37 -44 -72 -72 -72 -61 0 -152 80
-170 149 l-7 26 -6 -30 c-6 -30 -7 -30 -19 14 -16 55 -8 95 32 173 67 129 178
216 316 248 76 18 238 7 321 -20 224 -75 372 -210 476 -434 100 -218 111 -518
28 -774 -14 -41 -30 -83 -35 -91 -9 -13 -9 -12 -4 4 21 65 55 189 54 199 0 6
-15 -32 -33 -84 -17 -52 -37 -104 -43 -114 -9 -16 -42 -25 -179 -48 -530 -90
-1020 -247 -1376 -441 -462 -252 -781 -605 -912 -1010 -54 -165 -71 -285 -70
-497 1 -165 5 -219 28 -350 73 -422 181 -776 332 -1098 44 -94 52 -117 44
-138 -38 -100 27 -222 112 -211 36 5 37 3 83 -65 46 -70 47 -71 35 -116 -18
-73 8 -150 58 -171 16 -7 55 -44 87 -82 289 -352 889 -602 1640 -683 200 -22
552 -39 673 -33 l103 5 -8 -57 c-4 -31 -8 -108 -8 -171 0 -101 3 -121 24 -163
14 -30 38 -58 62 -74 36 -24 45 -25 107 -19 292 30 508 208 655 542 25 58 40
80 58 85 298 92 626 205 907 312 l141 54 11 -56 c85 -431 234 -736 434 -888
108 -82 225 -126 364 -139 64 -6 75 -5 105 16 83 57 111 140 111 330 0 256
-76 567 -227 921 l-45 107 27 12 c14 7 114 47 221 90 107 43 382 154 610 248
861 352 1019 416 1372 556 916 363 1511 567 1876 642 160 34 368 40 418 12 72
-40 1167 -71 1379 -40 327 49 535 145 771 357 72 65 224 230 224 244 0 3 -110
7 -244 7 -797 5 -1387 155 -1648 421 -67 68 -134 189 -143 260 -11 79 -14 81
-49 22 -144 -239 -344 -452 -526 -559 -285 -168 -617 -160 -1005 24 -228 108
-433 241 -910 592 -412 302 -520 379 -665 471 -325 208 -600 333 -860 394 -47
11 -134 36 -195 55 -490 158 -1110 280 -1755 343 -378 37 -558 45 -1015 46
-436 0 -634 -9 -915 -39 -63 -7 -117 -12 -118 -10 -2 1 7 42 21 91 44 154 51
204 51 343 0 150 -11 220 -55 357 -28 86 -29 97 -19 154 16 90 52 162 111 224
92 98 186 125 306 90 57 -17 139 -84 158 -129 13 -31 6 -75 -16 -102 -14 -17
-33 -19 -23 -1 4 6 -2 4 -13 -5 -29 -27 -53 -22 -66 12 -12 31 -21 37 -32 20
-4 -6 -10 -8 -15 -5 -10 6 -40 -33 -40 -52 0 -7 7 -13 15 -13 9 0 20 -11 26
-24 13 -27 35 -36 95 -36 54 0 103 33 132 90 65 130 -33 296 -200 338 -62 16
-102 15 -173 -3 -121 -32 -249 -133 -304 -243 -17 -34 -31 -68 -31 -77 0 -27
-14 -15 -50 41 -44 70 -147 177 -223 233 -188 137 -476 203 -666 151z"/>
</g>
</svg>
